<svg xmlns="http://www.w3.org/2000/svg" xmlns:xlink="http://www.w3.org/1999/xlink" width="500" zoomAndPan="magnify" viewBox="0 0 375 374.999991" height="500" preserveAspectRatio="xMidYMid meet" version="1.0"><defs><clipPath id="9794d67552"><path d="M 63 3.238281 L 318 3.238281 L 318 367 L 63 367 Z M 63 3.238281 " clip-rule="nonzero"/></clipPath></defs><g clip-path="url(#9794d67552)"><path fill="#000000" d="M 87.921875 239.492188 C 57.105469 211.859375 54.457031 160.890625 87.929688 130.308594 C 77.605469 120.632812 70.417969 109.101562 66.367188 95.429688 C 56.195312 61.09375 75.507812 21.292969 109.238281 9.011719 C 117.414062 6.035156 126.390625 3.929688 135.039062 3.800781 C 172.21875 3.238281 209.410156 3.351562 246.597656 3.617188 C 281.320312 3.867188 311.425781 29.585938 316.761719 63.859375 C 320.519531 88.003906 314.171875 109.449219 296.8125 127.179688 C 295.789062 128.226562 294.527344 129.046875 293.191406 130.121094 C 308.042969 144.558594 316.820312 161.070312 317.609375 181.550781 C 318.300781 199.574219 313.378906 215.589844 302.382812 229.800781 C 284.3125 253.15625 247.808594 268.058594 209.347656 248.386719 C 209.261719 250.105469 209.144531 251.621094 209.125 253.140625 C 208.894531 269.351562 209.519531 285.632812 208.277344 301.765625 C 205.964844 331.75 182.570312 357.816406 153.378906 364.449219 C 122.355469 371.496094 90.394531 358.273438 74.550781 331.839844 C 56.808594 302.230469 61.167969 266.734375 85.574219 242.046875 C 86.386719 241.226562 87.140625 240.34375 87.921875 239.492188 Z M 172.359375 221.210938 L 172.359375 148.722656 C 159.90625 148.722656 147.820312 148.679688 135.734375 148.734375 C 116.765625 148.820312 100.792969 164.40625 100.121094 183.414062 C 99.433594 202.867188 114.046875 220.054688 133.046875 221.078125 C 145.980469 221.773438 158.984375 221.210938 172.359375 221.210938 Z M 209.433594 112.257812 C 221.902344 112.257812 233.832031 112.359375 245.761719 112.234375 C 265.640625 112.027344 281.34375 96.3125 281.597656 76.535156 C 281.613281 75.359375 281.574219 74.179688 281.476562 73.007812 C 281.378906 71.832031 281.222656 70.664062 281.011719 69.503906 C 280.800781 68.34375 280.53125 67.199219 280.207031 66.0625 C 279.882812 64.929688 279.5 63.816406 279.066406 62.71875 C 278.632812 61.625 278.144531 60.550781 277.605469 59.503906 C 277.066406 58.453125 276.476562 57.433594 275.839844 56.441406 C 275.199219 55.453125 274.511719 54.496094 273.777344 53.570312 C 273.046875 52.648438 272.269531 51.761719 271.449219 50.914062 C 270.628906 50.066406 269.769531 49.261719 268.871094 48.5 C 267.96875 47.734375 267.035156 47.019531 266.066406 46.347656 C 265.097656 45.675781 264.097656 45.054688 263.066406 44.480469 C 262.035156 43.90625 260.976562 43.382812 259.894531 42.914062 C 258.8125 42.441406 257.710938 42.027344 256.589844 41.664062 C 255.464844 41.304688 254.328125 40.996094 253.175781 40.746094 C 252.023438 40.496094 250.859375 40.300781 249.6875 40.164062 C 248.515625 40.027344 247.339844 39.949219 246.160156 39.925781 C 234.664062 39.710938 223.160156 39.875 211.660156 39.890625 C 210.964844 39.890625 210.269531 40.074219 209.4375 40.191406 Z M 172.164062 40.050781 C 158.738281 40.050781 145.589844 39.25 132.578125 40.238281 C 112.890625 41.738281 99.050781 58.789062 100.167969 78.601562 C 101.230469 97.421875 116.972656 112.136719 136.210938 112.246094 C 144.320312 112.292969 152.433594 112.257812 160.542969 112.257812 L 172.164062 112.257812 Z M 172.070312 257.726562 C 160.171875 257.726562 148.25 257.351562 136.371094 257.894531 C 130.925781 258.140625 125.191406 259.355469 120.230469 261.570312 C 105.046875 268.355469 96.925781 286.453125 101.121094 302.613281 C 105.527344 319.589844 120.71875 330.84375 138.148438 330.054688 C 155.085938 329.28125 170.351562 316.523438 171.824219 299.941406 C 173.039062 286.234375 172.070312 272.335938 172.070312 257.726562 Z M 209.21875 185.007812 C 209.226562 205.253906 225.191406 221.300781 245.328125 221.308594 C 265.273438 221.316406 281.609375 204.945312 281.601562 184.960938 C 281.601562 183.773438 281.542969 182.589844 281.421875 181.40625 C 281.304688 180.226562 281.128906 179.050781 280.898438 177.886719 C 280.664062 176.722656 280.375 175.574219 280.027344 174.4375 C 279.683594 173.300781 279.28125 172.183594 278.828125 171.085938 C 278.371094 169.992188 277.863281 168.917969 277.300781 167.871094 C 276.738281 166.824219 276.128906 165.808594 275.46875 164.820312 C 274.804688 163.835938 274.097656 162.882812 273.34375 161.964844 C 272.589844 161.046875 271.792969 160.167969 270.949219 159.328125 C 270.109375 158.492188 269.230469 157.695312 268.308594 156.941406 C 267.390625 156.191406 266.4375 155.484375 265.449219 154.824219 C 264.460938 154.164062 263.441406 153.554688 262.390625 152.996094 C 261.34375 152.4375 260.269531 151.933594 259.171875 151.476562 C 258.074219 151.023438 256.957031 150.625 255.820312 150.28125 C 254.679688 149.9375 253.527344 149.648438 252.363281 149.417969 C 251.199219 149.1875 250.023438 149.015625 248.839844 148.898438 C 247.65625 148.78125 246.472656 148.726562 245.285156 148.726562 C 225.082031 148.742188 209.214844 164.707031 209.222656 185.007812 Z M 209.21875 185.007812 " fill-opacity="1" fill-rule="nonzero"/></g></svg>