<svg xmlns="http://www.w3.org/2000/svg" xmlns:xlink="http://www.w3.org/1999/xlink" width="500" zoomAndPan="magnify" viewBox="0 0 375 374.999991" height="500" preserveAspectRatio="xMidYMid meet" version="1.0"><defs><clipPath id="2323b95a57"><path d="M 108 91.949219 L 260 91.949219 L 260 164 L 108 164 Z M 108 91.949219 " clip-rule="nonzero"/></clipPath><clipPath id="bcd9c203af"><path d="M 115 191 L 194 191 L 194 296.699219 L 115 296.699219 Z M 115 191 " clip-rule="nonzero"/></clipPath><clipPath id="0bada8248f"><path d="M 192 195 L 267 195 L 267 296.699219 L 192 296.699219 Z M 192 195 " clip-rule="nonzero"/></clipPath></defs><path fill="#000000" d="M 299.808594 290.515625 L 221.203125 248.042969 L 221.203125 186.832031 L 299.820312 224.3125 Z M 299.808594 290.515625 " fill-opacity="1" fill-rule="evenodd"/><path fill="#952781" d="M 297.324219 280.53125 L 227.441406 243.058594 L 227.441406 194.324219 L 297.324219 228.0625 Z M 297.324219 280.53125 " fill-opacity="1" fill-rule="evenodd"/><path fill="#000000" d="M 303.550781 226.804688 L 221.203125 186.832031 L 296.074219 154.351562 L 372.195312 190.578125 Z M 303.550781 226.804688 " fill-opacity="1" fill-rule="evenodd"/><path fill="#952781" d="M 301.058594 221.808594 L 233.671875 188.082031 L 294.824219 161.851562 L 359.714844 191.835938 Z M 301.058594 221.808594 " fill-opacity="1" fill-rule="evenodd"/><path fill="#000000" d="M 372.195312 190.578125 L 298.574219 225.5625 L 299.816406 290.523438 L 373.445312 254.296875 Z M 372.195312 190.578125 " fill-opacity="1" fill-rule="evenodd"/><path fill="#952781" d="M 365.949219 196.828125 L 306.039062 228.0625 L 306.039062 280.53125 L 365.949219 250.550781 Z M 365.949219 196.828125 " fill-opacity="1" fill-rule="evenodd"/><path fill="#000000" d="M 187.5 226.804688 L 108.878906 184.332031 L 108.878906 123.128906 L 187.5 160.597656 Z M 187.5 226.804688 " fill-opacity="1" fill-rule="evenodd"/><path fill="#6483c0" d="M 185 218.058594 L 115.121094 179.328125 L 115.121094 130.609375 L 185 164.34375 Z M 185 218.058594 " fill-opacity="1" fill-rule="evenodd"/><g clip-path="url(#2323b95a57)"><path fill="#000000" d="M 191.242188 163.089844 L 108.878906 123.128906 L 183.746094 91.890625 L 259.867188 126.875 Z M 191.242188 163.089844 " fill-opacity="1" fill-rule="evenodd"/></g><path fill="#6483c0" d="M 188.75 158.097656 L 121.355469 124.359375 L 182.507812 98.1875 L 247.402344 128.164062 Z M 188.75 158.097656 " fill-opacity="1" fill-rule="evenodd"/><path fill="#000000" d="M 259.878906 126.875 L 186.257812 161.851562 L 187.5 226.804688 L 261.132812 190.578125 Z M 259.878906 126.875 " fill-opacity="1" fill-rule="evenodd"/><path fill="#6483c0" d="M 253.636719 134.367188 L 193.730469 164.351562 L 193.730469 216.820312 L 253.636719 186.839844 Z M 253.636719 134.367188 " fill-opacity="1" fill-rule="evenodd"/><path fill="#000000" d="M 80.175781 286.777344 L 1.554688 244.292969 L 1.554688 183.085938 L 78.925781 220.5 Z M 80.175781 286.777344 " fill-opacity="1" fill-rule="evenodd"/><path fill="#d87b30" d="M 77.675781 276.785156 L 7.796875 239.300781 L 7.796875 190.578125 L 77.683594 224.316406 Z M 77.675781 276.785156 " fill-opacity="1" fill-rule="evenodd"/><path fill="#000000" d="M 82.671875 223.058594 L 1.554688 183.085938 L 76.425781 150.605469 L 152.546875 186.832031 Z M 82.671875 223.058594 " fill-opacity="1" fill-rule="evenodd"/><path fill="#d87b30" d="M 81.417969 218.058594 L 12.78125 184.320312 L 75.179688 158.085938 L 140.074219 188.066406 Z M 81.417969 218.058594 " fill-opacity="1" fill-rule="evenodd"/><path fill="#000000" d="M 152.554688 186.832031 L 78.929688 221.808594 L 80.179688 286.78125 L 153.816406 250.542969 Z M 152.554688 186.832031 " fill-opacity="1" fill-rule="evenodd"/><path fill="#d87b30" d="M 145.070312 193.074219 L 85.160156 224.3125 L 86.410156 276.777344 L 146.320312 246.792969 Z M 145.070312 193.074219 " fill-opacity="1" fill-rule="evenodd"/><g clip-path="url(#bcd9c203af)"><path fill="#000000" d="M 193.742188 296.699219 L 115.121094 252.980469 L 115.121094 191.824219 L 192.484375 229.300781 Z M 193.742188 296.699219 " fill-opacity="1" fill-rule="evenodd"/></g><path fill="#e0d400" d="M 191.242188 286.777344 L 121.355469 249.292969 L 121.355469 199.328125 L 191.246094 233.066406 Z M 191.242188 286.777344 " fill-opacity="1" fill-rule="evenodd"/><path fill="#000000" d="M 196.234375 231.800781 L 115.117188 191.828125 L 189.988281 160.59375 L 266.109375 195.570312 Z M 196.234375 231.800781 " fill-opacity="1" fill-rule="evenodd"/><path fill="#e0d400" d="M 193.742188 226.804688 L 126.347656 194.324219 L 188.742188 168.148438 L 253.636719 198.128906 Z M 193.742188 226.804688 " fill-opacity="1" fill-rule="evenodd"/><g clip-path="url(#0bada8248f)"><path fill="#000000" d="M 266.121094 195.574219 L 192.496094 230.550781 L 193.746094 296.757812 L 266.125 259.285156 Z M 266.121094 195.574219 " fill-opacity="1" fill-rule="evenodd"/></g><path fill="#e0d400" d="M 258.625 203.074219 L 198.714844 233.058594 L 199.957031 285.527344 L 259.867188 256.792969 Z M 258.625 203.074219 " fill-opacity="1" fill-rule="evenodd"/></svg>