<svg xmlns="http://www.w3.org/2000/svg" xmlns:xlink="http://www.w3.org/1999/xlink" width="500" zoomAndPan="magnify" viewBox="0 0 375 374.999991" height="500" preserveAspectRatio="xMidYMid meet" version="1.0"><defs><clipPath id="1e29bcccaf"><path d="M 0 52.265625 L 375 52.265625 L 375 323 L 0 323 Z M 0 52.265625 " clip-rule="nonzero"/></clipPath></defs><g clip-path="url(#1e29bcccaf)"><path fill="#000000" d="M 3.542969 52.34375 C 3.039062 52.441406 2.566406 52.621094 2.125 52.886719 C 1.683594 53.148438 1.300781 53.480469 0.976562 53.878906 C 0.652344 54.28125 0.40625 54.722656 0.238281 55.207031 C 0.0703125 55.695312 -0.0078125 56.195312 0 56.710938 L 0 318.59375 C 0 318.878906 0.0273438 319.164062 0.0820312 319.445312 C 0.140625 319.722656 0.222656 319.996094 0.332031 320.261719 C 0.441406 320.527344 0.574219 320.777344 0.734375 321.015625 C 0.894531 321.253906 1.074219 321.476562 1.277344 321.679688 C 1.480469 321.882812 1.699219 322.0625 1.9375 322.222656 C 2.175781 322.378906 2.425781 322.515625 2.691406 322.625 C 2.957031 322.734375 3.230469 322.816406 3.511719 322.871094 C 3.789062 322.929688 4.074219 322.957031 4.359375 322.957031 L 370.640625 322.957031 C 370.925781 322.957031 371.210938 322.929688 371.488281 322.871094 C 371.769531 322.816406 372.042969 322.734375 372.308594 322.625 C 372.574219 322.515625 372.824219 322.378906 373.0625 322.21875 C 373.300781 322.0625 373.519531 321.878906 373.722656 321.679688 C 373.925781 321.476562 374.105469 321.253906 374.265625 321.015625 C 374.425781 320.777344 374.558594 320.527344 374.667969 320.261719 C 374.777344 319.996094 374.859375 319.722656 374.917969 319.445312 C 374.972656 319.164062 375 318.878906 375 318.59375 L 375 56.710938 C 375 56.425781 374.972656 56.140625 374.917969 55.859375 C 374.859375 55.578125 374.777344 55.304688 374.667969 55.039062 C 374.558594 54.773438 374.425781 54.523438 374.265625 54.285156 C 374.105469 54.046875 373.925781 53.828125 373.722656 53.625 C 373.519531 53.421875 373.300781 53.238281 373.0625 53.082031 C 372.824219 52.921875 372.574219 52.789062 372.308594 52.679688 C 372.042969 52.566406 371.769531 52.484375 371.488281 52.429688 C 371.210938 52.375 370.925781 52.347656 370.640625 52.34375 L 4.359375 52.34375 C 4.089844 52.320312 3.816406 52.320312 3.542969 52.34375 Z M 8.722656 61.074219 L 366.277344 61.074219 L 366.277344 314.226562 L 8.722656 314.226562 Z M 100.289062 87.261719 C 78.667969 87.261719 61.046875 104.902344 61.046875 126.546875 C 61.046875 133.527344 62.878906 140.085938 66.089844 145.777344 C 66.039062 145.867188 65.996094 145.957031 65.953125 146.050781 L 35.429688 198.425781 C 35 199.109375 34.78125 199.851562 34.761719 200.65625 C 34.746094 201.460938 34.9375 202.214844 35.335938 202.914062 C 35.734375 203.609375 36.285156 204.15625 36.988281 204.550781 C 37.6875 204.945312 38.441406 205.132812 39.246094 205.109375 L 57.777344 205.109375 L 65.542969 232.390625 C 65.660156 232.824219 65.839844 233.230469 66.082031 233.605469 C 66.324219 233.984375 66.617188 234.316406 66.960938 234.605469 C 67.304688 234.894531 67.683594 235.121094 68.097656 235.292969 C 68.515625 235.464844 68.945312 235.566406 69.390625 235.605469 C 69.839844 235.640625 70.28125 235.609375 70.71875 235.511719 C 71.15625 235.410156 71.566406 235.25 71.957031 235.023438 C 72.34375 234.796875 72.6875 234.515625 72.988281 234.183594 C 73.289062 233.851562 73.53125 233.480469 73.71875 233.070312 L 100.289062 176.058594 L 126.863281 233.070312 C 127.050781 233.480469 127.292969 233.847656 127.59375 234.183594 C 127.894531 234.515625 128.238281 234.796875 128.625 235.023438 C 129.011719 235.25 129.425781 235.410156 129.863281 235.511719 C 130.300781 235.609375 130.742188 235.640625 131.1875 235.605469 C 131.636719 235.566406 132.066406 235.460938 132.480469 235.292969 C 132.898438 235.121094 133.277344 234.894531 133.621094 234.605469 C 133.964844 234.316406 134.257812 233.984375 134.5 233.605469 C 134.742188 233.230469 134.921875 232.824219 135.039062 232.390625 L 142.804688 205.109375 L 161.335938 205.109375 C 162.140625 205.132812 162.894531 204.945312 163.59375 204.550781 C 164.296875 204.15625 164.847656 203.609375 165.246094 202.914062 C 165.644531 202.214844 165.835938 201.460938 165.820312 200.65625 C 165.800781 199.851562 165.578125 199.109375 165.152344 198.425781 L 134.628906 146.050781 C 134.542969 145.953125 134.453125 145.863281 134.355469 145.777344 C 137.585938 140.074219 139.535156 133.550781 139.535156 126.546875 C 139.535156 104.902344 121.914062 87.261719 100.289062 87.261719 Z M 100.289062 95.992188 C 117.199219 95.992188 130.8125 109.621094 130.8125 126.546875 C 130.8125 143.472656 117.199219 157.097656 100.289062 157.097656 C 83.382812 157.097656 69.765625 143.472656 69.765625 126.546875 C 69.765625 109.621094 83.382812 95.992188 100.289062 95.992188 Z M 195.402344 104.722656 C 195.117188 104.75 194.835938 104.804688 194.558594 104.886719 C 194.285156 104.96875 194.019531 105.078125 193.765625 105.210938 C 193.511719 105.34375 193.273438 105.503906 193.050781 105.683594 C 192.828125 105.867188 192.625 106.066406 192.441406 106.289062 C 192.257812 106.511719 192.097656 106.75 191.960938 107.003906 C 191.824219 107.253906 191.710938 107.519531 191.628906 107.792969 C 191.542969 108.070312 191.484375 108.351562 191.457031 108.636719 C 191.425781 108.921875 191.425781 109.210938 191.453125 109.496094 C 191.476562 109.78125 191.53125 110.0625 191.613281 110.339844 C 191.699219 110.617188 191.804688 110.882812 191.941406 111.136719 C 192.074219 111.390625 192.230469 111.628906 192.414062 111.851562 C 192.59375 112.074219 192.796875 112.28125 193.019531 112.464844 C 193.238281 112.644531 193.476562 112.804688 193.730469 112.945312 C 193.984375 113.082031 194.246094 113.191406 194.519531 113.277344 C 194.796875 113.359375 195.078125 113.417969 195.363281 113.449219 C 195.648438 113.476562 195.933594 113.476562 196.222656 113.453125 L 327.035156 113.453125 C 327.324219 113.457031 327.609375 113.429688 327.894531 113.378906 C 328.179688 113.324219 328.453125 113.246094 328.722656 113.136719 C 328.988281 113.027344 329.246094 112.894531 329.484375 112.738281 C 329.726562 112.578125 329.949219 112.398438 330.15625 112.195312 C 330.363281 111.992188 330.546875 111.769531 330.707031 111.53125 C 330.867188 111.292969 331.003906 111.039062 331.117188 110.769531 C 331.230469 110.503906 331.3125 110.230469 331.371094 109.945312 C 331.425781 109.660156 331.453125 109.375 331.453125 109.085938 C 331.453125 108.796875 331.425781 108.511719 331.371094 108.226562 C 331.3125 107.945312 331.230469 107.667969 331.117188 107.402344 C 331.003906 107.136719 330.867188 106.882812 330.707031 106.644531 C 330.546875 106.402344 330.363281 106.183594 330.15625 105.980469 C 329.949219 105.777344 329.726562 105.597656 329.484375 105.4375 C 329.246094 105.277344 328.988281 105.144531 328.722656 105.039062 C 328.453125 104.929688 328.179688 104.847656 327.894531 104.796875 C 327.609375 104.742188 327.324219 104.71875 327.035156 104.722656 L 196.222656 104.722656 C 195.949219 104.695312 195.675781 104.695312 195.402344 104.722656 Z M 195.402344 148.367188 C 195.117188 148.394531 194.832031 148.445312 194.554688 148.527344 C 194.277344 148.609375 194.011719 148.714844 193.753906 148.847656 C 193.5 148.984375 193.257812 149.140625 193.03125 149.320312 C 192.808594 149.503906 192.601562 149.703125 192.417969 149.925781 C 192.230469 150.148438 192.070312 150.386719 191.933594 150.640625 C 191.792969 150.894531 191.683594 151.160156 191.597656 151.4375 C 191.511719 151.714844 191.453125 151.996094 191.421875 152.28125 C 191.394531 152.570312 191.390625 152.859375 191.417969 153.144531 C 191.445312 153.433594 191.5 153.714844 191.582031 153.992188 C 191.667969 154.269531 191.773438 154.535156 191.910156 154.792969 C 192.046875 155.046875 192.207031 155.289062 192.386719 155.511719 C 192.570312 155.734375 192.773438 155.941406 192.996094 156.121094 C 193.222656 156.308594 193.460938 156.46875 193.714844 156.601562 C 193.96875 156.738281 194.234375 156.847656 194.511719 156.933594 C 194.789062 157.015625 195.070312 157.074219 195.359375 157.101562 C 195.644531 157.128906 195.933594 157.128906 196.222656 157.097656 L 327.035156 157.097656 C 327.324219 157.101562 327.609375 157.078125 327.894531 157.023438 C 328.179688 156.972656 328.453125 156.890625 328.722656 156.78125 C 328.988281 156.675781 329.246094 156.542969 329.484375 156.382812 C 329.726562 156.226562 329.949219 156.042969 330.15625 155.839844 C 330.363281 155.636719 330.546875 155.417969 330.707031 155.175781 C 330.867188 154.9375 331.003906 154.683594 331.117188 154.417969 C 331.230469 154.152344 331.3125 153.875 331.371094 153.59375 C 331.425781 153.308594 331.453125 153.023438 331.453125 152.734375 C 331.453125 152.445312 331.425781 152.160156 331.371094 151.875 C 331.3125 151.589844 331.230469 151.316406 331.117188 151.050781 C 331.003906 150.78125 330.867188 150.53125 330.707031 150.289062 C 330.546875 150.050781 330.363281 149.828125 330.15625 149.625 C 329.949219 149.421875 329.726562 149.242188 329.484375 149.085938 C 329.246094 148.925781 328.988281 148.792969 328.722656 148.683594 C 328.453125 148.578125 328.179688 148.496094 327.894531 148.441406 C 327.609375 148.390625 327.324219 148.363281 327.035156 148.367188 L 196.222656 148.367188 C 195.949219 148.34375 195.675781 148.34375 195.402344 148.367188 Z M 71.8125 153.550781 C 77.929688 160.011719 86.261719 164.414062 95.519531 165.554688 L 70.722656 218.75 L 65.269531 199.515625 C 65.136719 199.0625 64.933594 198.636719 64.664062 198.25 C 64.390625 197.859375 64.066406 197.523438 63.683594 197.238281 C 63.304688 196.957031 62.886719 196.742188 62.4375 196.59375 C 61.984375 196.445312 61.519531 196.375 61.046875 196.378906 L 46.875 196.378906 Z M 128.769531 153.550781 L 153.707031 196.378906 L 139.535156 196.378906 C 139.058594 196.375 138.597656 196.449219 138.144531 196.59375 C 137.695312 196.742188 137.277344 196.957031 136.898438 197.238281 C 136.515625 197.523438 136.191406 197.859375 135.917969 198.25 C 135.648438 198.636719 135.445312 199.0625 135.3125 199.515625 L 129.859375 218.75 L 104.921875 165.554688 C 114.238281 164.4375 122.625 160.042969 128.769531 153.550781 Z M 195.402344 192.015625 C 195.117188 192.042969 194.832031 192.09375 194.554688 192.175781 C 194.277344 192.253906 194.011719 192.363281 193.753906 192.496094 C 193.5 192.628906 193.257812 192.789062 193.03125 192.96875 C 192.808594 193.152344 192.601562 193.351562 192.417969 193.574219 C 192.230469 193.796875 192.070312 194.035156 191.933594 194.289062 C 191.792969 194.542969 191.683594 194.808594 191.597656 195.082031 C 191.511719 195.359375 191.453125 195.640625 191.421875 195.929688 C 191.394531 196.21875 191.390625 196.503906 191.417969 196.792969 C 191.445312 197.082031 191.5 197.363281 191.582031 197.640625 C 191.667969 197.917969 191.773438 198.183594 191.910156 198.4375 C 192.046875 198.695312 192.207031 198.933594 192.386719 199.160156 C 192.570312 199.382812 192.773438 199.585938 192.996094 199.769531 C 193.222656 199.953125 193.460938 200.113281 193.714844 200.25 C 193.96875 200.386719 194.234375 200.496094 194.511719 200.582031 C 194.789062 200.664062 195.070312 200.71875 195.359375 200.746094 C 195.644531 200.777344 195.933594 200.773438 196.222656 200.746094 L 327.035156 200.746094 C 327.324219 200.75 327.609375 200.726562 327.894531 200.671875 C 328.179688 200.617188 328.453125 200.539062 328.722656 200.429688 C 328.988281 200.324219 329.246094 200.1875 329.484375 200.03125 C 329.726562 199.871094 329.949219 199.691406 330.15625 199.488281 C 330.363281 199.285156 330.546875 199.0625 330.707031 198.824219 C 330.867188 198.585938 331.003906 198.332031 331.117188 198.066406 C 331.230469 197.796875 331.3125 197.523438 331.371094 197.238281 C 331.425781 196.957031 331.453125 196.667969 331.453125 196.378906 C 331.453125 196.089844 331.425781 195.804688 331.371094 195.523438 C 331.3125 195.238281 331.230469 194.964844 331.117188 194.695312 C 331.003906 194.429688 330.867188 194.175781 330.707031 193.9375 C 330.546875 193.699219 330.363281 193.476562 330.15625 193.273438 C 329.949219 193.070312 329.726562 192.890625 329.484375 192.730469 C 329.246094 192.570312 328.988281 192.4375 328.722656 192.332031 C 328.453125 192.222656 328.179688 192.140625 327.894531 192.089844 C 327.609375 192.035156 327.324219 192.011719 327.035156 192.015625 L 196.222656 192.015625 C 195.949219 191.988281 195.675781 191.988281 195.402344 192.015625 Z M 38.425781 253.121094 C 38.140625 253.152344 37.863281 253.207031 37.589844 253.289062 C 37.316406 253.375 37.050781 253.484375 36.800781 253.617188 C 36.546875 253.753906 36.3125 253.914062 36.089844 254.09375 C 35.867188 254.277344 35.667969 254.476562 35.484375 254.699219 C 35.304688 254.921875 35.144531 255.15625 35.011719 255.410156 C 34.875 255.660156 34.765625 255.925781 34.679688 256.199219 C 34.597656 256.472656 34.539062 256.75 34.511719 257.035156 C 34.480469 257.320312 34.480469 257.605469 34.507812 257.890625 C 34.535156 258.175781 34.589844 258.457031 34.671875 258.730469 C 34.75 259.007812 34.859375 259.269531 34.992188 259.523438 C 35.125 259.777344 35.28125 260.015625 35.460938 260.238281 C 35.640625 260.460938 35.839844 260.664062 36.0625 260.847656 C 36.28125 261.03125 36.515625 261.191406 36.765625 261.328125 C 37.019531 261.46875 37.28125 261.578125 37.554688 261.664062 C 37.828125 261.75 38.105469 261.808594 38.390625 261.839844 C 38.675781 261.871094 38.960938 261.875 39.246094 261.851562 L 327.035156 261.851562 C 327.324219 261.855469 327.609375 261.832031 327.894531 261.777344 C 328.179688 261.722656 328.453125 261.644531 328.722656 261.535156 C 328.988281 261.429688 329.246094 261.292969 329.484375 261.136719 C 329.726562 260.976562 329.949219 260.796875 330.15625 260.59375 C 330.363281 260.390625 330.546875 260.167969 330.707031 259.929688 C 330.867188 259.691406 331.003906 259.4375 331.117188 259.171875 C 331.230469 258.902344 331.3125 258.628906 331.371094 258.34375 C 331.425781 258.0625 331.453125 257.773438 331.453125 257.484375 C 331.453125 257.195312 331.425781 256.910156 331.371094 256.628906 C 331.3125 256.34375 331.230469 256.070312 331.117188 255.800781 C 331.003906 255.535156 330.867188 255.28125 330.707031 255.042969 C 330.546875 254.804688 330.363281 254.582031 330.15625 254.378906 C 329.949219 254.175781 329.726562 253.996094 329.484375 253.835938 C 329.246094 253.675781 328.988281 253.542969 328.722656 253.4375 C 328.453125 253.328125 328.179688 253.25 327.894531 253.195312 C 327.609375 253.140625 327.324219 253.117188 327.035156 253.121094 L 39.246094 253.121094 C 38.972656 253.09375 38.699219 253.09375 38.425781 253.121094 Z M 38.425781 283.675781 C 38.140625 283.699219 37.855469 283.753906 37.578125 283.832031 C 37.300781 283.914062 37.035156 284.019531 36.777344 284.15625 C 36.523438 284.289062 36.28125 284.445312 36.054688 284.628906 C 35.832031 284.808594 35.625 285.011719 35.441406 285.234375 C 35.253906 285.453125 35.09375 285.691406 34.957031 285.945312 C 34.816406 286.199219 34.707031 286.464844 34.621094 286.742188 C 34.535156 287.019531 34.476562 287.300781 34.445312 287.589844 C 34.417969 287.875 34.414062 288.164062 34.441406 288.453125 C 34.46875 288.738281 34.523438 289.023438 34.605469 289.296875 C 34.691406 289.574219 34.796875 289.84375 34.933594 290.097656 C 35.070312 290.351562 35.230469 290.59375 35.410156 290.816406 C 35.59375 291.039062 35.796875 291.242188 36.019531 291.429688 C 36.246094 291.613281 36.484375 291.773438 36.738281 291.90625 C 36.992188 292.042969 37.257812 292.15625 37.535156 292.238281 C 37.8125 292.324219 38.09375 292.378906 38.382812 292.40625 C 38.667969 292.433594 38.957031 292.433594 39.246094 292.402344 L 327.035156 292.402344 C 327.324219 292.40625 327.609375 292.382812 327.894531 292.332031 C 328.179688 292.277344 328.457031 292.199219 328.722656 292.089844 C 328.992188 291.984375 329.25 291.851562 329.492188 291.691406 C 329.730469 291.535156 329.957031 291.351562 330.164062 291.148438 C 330.367188 290.945312 330.550781 290.726562 330.714844 290.484375 C 330.875 290.246094 331.011719 289.992188 331.125 289.726562 C 331.238281 289.457031 331.320312 289.183594 331.378906 288.898438 C 331.433594 288.613281 331.464844 288.328125 331.464844 288.039062 C 331.464844 287.75 331.433594 287.460938 331.378906 287.179688 C 331.320312 286.894531 331.238281 286.617188 331.125 286.351562 C 331.011719 286.085938 330.875 285.832031 330.714844 285.59375 C 330.550781 285.351562 330.367188 285.128906 330.164062 284.929688 C 329.957031 284.726562 329.730469 284.542969 329.492188 284.386719 C 329.25 284.226562 328.992188 284.09375 328.722656 283.984375 C 328.457031 283.878906 328.179688 283.796875 327.894531 283.746094 C 327.609375 283.695312 327.324219 283.667969 327.035156 283.675781 L 39.246094 283.675781 C 38.972656 283.648438 38.699219 283.648438 38.425781 283.675781 Z M 38.425781 283.675781 " fill-opacity="1" fill-rule="nonzero"/></g></svg>