<svg xmlns="http://www.w3.org/2000/svg" xmlns:xlink="http://www.w3.org/1999/xlink" width="500" zoomAndPan="magnify" viewBox="0 0 375 374.999991" height="500" preserveAspectRatio="xMidYMid meet" version="1.0"><defs><clipPath id="ae6e6ed2c2"><path d="M 51 0 L 323.859375 0 L 323.859375 375 L 51 375 Z M 51 0 " clip-rule="nonzero"/></clipPath><clipPath id="f6c30d52fc"><path d="M 229 0 L 323.859375 0 L 323.859375 95 L 229 95 Z M 229 0 " clip-rule="nonzero"/></clipPath></defs><path fill="#221f1f" d="M 98.367188 8.929688 L 98.367188 103.492188 L 192.425781 103.492188 " fill-opacity="0.35" fill-rule="nonzero"/><g clip-path="url(#ae6e6ed2c2)"><path fill="#107c42" d="M 229.320312 0 L 76.476562 0 C 62.691406 0 51.339844 11.363281 51.339844 25.164062 L 51.339844 349.835938 C 51.339844 363.636719 62.691406 375 76.476562 375 L 298.242188 375 C 312.027344 375 323.378906 363.636719 323.378906 349.835938 L 323.378906 94.5625 Z M 229.320312 0 " fill-opacity="1" fill-rule="nonzero"/></g><g clip-path="url(#f6c30d52fc)"><path fill="#221f1f" d="M 229.320312 0 L 229.320312 94.5625 L 323.378906 94.5625 " fill-opacity="0.35" fill-rule="nonzero"/></g><path fill="#ffffff" d="M 181.886719 130.277344 L 100.800781 130.277344 C 95.125 130.277344 90.664062 125.8125 90.664062 120.128906 L 90.664062 51.542969 C 90.664062 45.859375 95.125 41.394531 100.800781 41.394531 L 181.886719 41.394531 C 187.5625 41.394531 192.023438 45.859375 192.023438 51.542969 L 192.023438 119.722656 C 192.023438 125.8125 187.5625 130.277344 181.886719 130.277344 Z M 181.886719 130.277344 " fill-opacity="1" fill-rule="nonzero"/><path fill="#107c42" d="M 153.910156 114.042969 C 153.910156 114.042969 143.371094 95.375 141.34375 92.125 L 140.9375 92.125 C 139.316406 95.375 137.695312 98.214844 134.855469 102.679688 L 128.371094 114.042969 L 114.179688 114.042969 L 133.640625 86.039062 L 115.800781 57.628906 L 130.398438 57.628906 C 130.398438 57.628906 140.128906 75.894531 141.75 79.140625 L 142.15625 79.140625 C 143.777344 75.488281 154.316406 57.628906 154.316406 57.628906 L 167.695312 57.628906 L 149.453125 85.632812 L 168.101562 114.042969 Z M 153.910156 114.042969 " fill-opacity="1" fill-rule="nonzero"/><path fill="#ffffff" d="M 96.339844 187.90625 L 179.046875 187.90625 L 179.046875 211.039062 L 96.339844 211.039062 Z M 96.339844 187.90625 " fill-opacity="1" fill-rule="nonzero"/><path fill="#ffffff" d="M 96.339844 236.605469 L 179.046875 236.605469 L 179.046875 259.742188 L 96.339844 259.742188 Z M 96.339844 236.605469 " fill-opacity="1" fill-rule="nonzero"/><path fill="#ffffff" d="M 96.339844 285.308594 L 179.046875 285.308594 L 179.046875 308.441406 L 96.339844 308.441406 Z M 96.339844 285.308594 " fill-opacity="1" fill-rule="nonzero"/><path fill="#ffffff" d="M 195.265625 187.90625 L 277.972656 187.90625 L 277.972656 211.039062 L 195.265625 211.039062 Z M 195.265625 187.90625 " fill-opacity="1" fill-rule="nonzero"/><path fill="#ffffff" d="M 195.265625 236.605469 L 277.972656 236.605469 L 277.972656 259.742188 L 195.265625 259.742188 Z M 195.265625 236.605469 " fill-opacity="1" fill-rule="nonzero"/><path fill="#ffffff" d="M 195.265625 285.308594 L 277.972656 285.308594 L 277.972656 308.441406 L 195.265625 308.441406 Z M 195.265625 285.308594 " fill-opacity="1" fill-rule="nonzero"/></svg>